<svg width="61" height="19" viewBox="0 0 61 19" fill="none" xmlns="http://www.w3.org/2000/svg">
<path d="M13.704 18.24L11.832 13.44H4.056L2.184 18.192L0.24 17.4L6.816 1.2H9.312L15.792 17.4L13.704 18.24ZM4.776 11.52H11.088L7.944 3.456L4.776 11.52ZM20.6779 18L15.6619 6.096L17.6299 5.28L21.8779 15.552L26.1259 5.28L27.9739 6.096L22.9339 18H20.6779ZM30.1388 18V5.52H32.2988V18H30.1388ZM31.2188 3.384C30.8028 3.384 30.4428 3.232 30.1388 2.928C29.8508 2.624 29.7068 2.272 29.7068 1.872C29.7068 1.408 29.8428 1.04 30.1148 0.767999C30.3868 0.495999 30.7548 0.36 31.2188 0.36C31.6348 0.36 31.9868 0.512 32.2748 0.816C32.5788 1.104 32.7308 1.456 32.7308 1.872C32.7308 2.32 32.5948 2.688 32.3228 2.976C32.0508 3.248 31.6828 3.384 31.2188 3.384ZM41.3948 18.288C40.2108 18.288 39.1468 18.016 38.2028 17.472C37.2588 16.912 36.5148 16.144 35.9708 15.168C35.4428 14.176 35.1788 13.04 35.1788 11.76C35.1788 10.416 35.4508 9.256 35.9948 8.28C36.5388 7.304 37.2828 6.552 38.2268 6.024C39.1708 5.496 40.2268 5.232 41.3948 5.232C42.5628 5.232 43.6108 5.496 44.5388 6.024C45.4828 6.552 46.2268 7.304 46.7708 8.28C47.3308 9.24 47.6108 10.384 47.6108 11.712C47.6108 13.04 47.3388 14.2 46.7948 15.192C46.2508 16.168 45.5068 16.928 44.5628 17.472C43.6348 18.016 42.5788 18.288 41.3948 18.288ZM41.3948 16.368C42.6588 16.368 43.6428 15.944 44.3468 15.096C45.0508 14.232 45.4028 13.12 45.4028 11.76C45.4028 10.928 45.2268 10.168 44.8748 9.48C44.5228 8.776 44.0428 8.216 43.4348 7.8C42.8428 7.368 42.1628 7.152 41.3948 7.152C40.1308 7.152 39.1468 7.568 38.4428 8.4C37.7388 9.232 37.3867 10.336 37.3867 11.712C37.3867 12.544 37.5628 13.32 37.9148 14.04C38.2668 14.744 38.7388 15.312 39.3308 15.744C39.9388 16.16 40.6268 16.368 41.3948 16.368ZM50.4825 18V5.52H52.5705V7.608C53.0185 6.936 53.5865 6.376 54.2745 5.928C54.9785 5.464 55.8105 5.232 56.7705 5.232C58.1785 5.232 59.2265 5.656 59.9145 6.504C60.6185 7.352 60.9705 8.472 60.9705 9.864V18H58.8105V10.104C58.8105 9.208 58.5945 8.488 58.1625 7.944C57.7465 7.4 57.1625 7.128 56.4105 7.128C55.6745 7.128 54.9785 7.392 54.3225 7.92C53.6665 8.432 53.1065 9.04 52.6425 9.744V18H50.4825Z" fill="#22202E"/>
</svg>
